<svg width="32" height="32" viewBox="0 0 32 32" fill="none" xmlns="http://www.w3.org/2000/svg">
<path d="M16 0C20.24 0 24.304 1.696 27.312 4.688L25.04 6.96C23.8539 5.77031 22.4451 4.82592 20.894 4.18077C19.3429 3.53563 17.6799 3.20236 16 3.2C12.608 3.2 9.344 4.544 6.96 6.96L4.688 4.688C7.696 1.696 11.76 0 16 0ZM2.656 7.2L4.976 9.504C3.81788 11.4733 3.20489 13.7154 3.2 16C3.2 19.3948 4.54857 22.6505 6.94903 25.051C9.3495 27.4514 12.6052 28.8 16 28.8C19.3948 28.8 22.6505 27.4514 25.051 25.051C27.4514 22.6505 28.8 19.3948 28.8 16C28.8 13.712 28.176 11.472 27.008 9.504L29.344 7.2C31.0771 9.80756 32.0011 12.869 32 16C32 20.2435 30.3143 24.3131 27.3137 27.3137C24.3131 30.3143 20.2435 32 16 32C13.8989 32 11.8183 31.5861 9.87706 30.7821C7.93586 29.978 6.17203 28.7994 4.68629 27.3137C1.68571 24.3131 0 20.2435 0 16C0 12.864 0.928 9.792 2.656 7.2ZM16 6.4C18.5461 6.4 20.9879 7.41143 22.7882 9.21178C24.5886 11.0121 25.6 13.4539 25.6 16C25.6 18.544 24.592 20.992 22.784 22.784L20.528 20.528C19.3267 21.7282 17.6981 22.4024 16 22.4024C14.3019 22.4024 12.6733 21.7282 11.472 20.528L9.216 22.784C8.32217 21.895 7.61316 20.8378 7.12985 19.6735C6.64653 18.5092 6.39849 17.2607 6.4 16C6.4 13.4539 7.41143 11.0121 9.21178 9.21178C11.0121 7.41143 13.4539 6.4 16 6.4ZM16 9.6C15.5757 9.6 15.1687 9.76857 14.8686 10.0686C14.5686 10.3687 14.4 10.7757 14.4 11.2C14.4 11.6243 14.5686 12.0313 14.8686 12.3314C15.1687 12.6314 15.5757 12.8 16 12.8C16.4243 12.8 16.8313 12.6314 17.1314 12.3314C17.4314 12.0313 17.6 11.6243 17.6 11.2C17.6 10.7757 17.4314 10.3687 17.1314 10.0686C16.8313 9.76857 16.4243 9.6 16 9.6Z" fill="#05938C"/>
</svg>
