<svg width="27" height="27" viewBox="0 0 27 27" fill="none" xmlns="http://www.w3.org/2000/svg">
<path d="M0.772461 25.6578V25.6577V4.33922C0.772461 3.39818 1.12967 2.49373 1.76854 1.82533C2.40774 1.15657 3.27694 0.778839 4.18555 0.778839H23.2988C24.2074 0.778839 25.0766 1.15657 25.7158 1.82533C26.3547 2.49373 26.7119 3.39818 26.7119 4.33922V17.6706C26.7119 18.6116 26.3547 19.5161 25.7158 20.1845C25.0766 20.8532 24.2074 21.2309 23.2988 21.2309H8.03055C8.03054 21.2309 8.03052 21.2309 8.0305 21.2309C7.67187 21.231 7.32576 21.3801 7.06892 21.6489L7.0689 21.6489L2.52492 26.403L0.772461 25.6578ZM0.772461 25.6578C0.772503 25.8654 0.831382 26.0692 0.942716 26.2433C1.05411 26.4176 1.21347 26.5549 1.40185 26.6364L1.49217 26.4276M0.772461 25.6578L1.49217 26.4276M1.49217 26.4276L1.40185 26.6364C1.59036 26.7179 1.79838 26.7393 1.99913 26.6973M1.49217 26.4276L1.99913 26.6973M1.99913 26.6973C2.1997 26.6553 2.38239 26.5524 2.52472 26.4032L1.99913 26.6973ZM8.0305 19.1094H8.03045C7.12193 19.1097 6.25288 19.4875 5.61383 20.1563C5.61382 20.1563 5.61382 20.1563 5.61381 20.1563L2.82031 23.079V4.33922C2.82031 3.95437 2.96653 3.58723 3.22377 3.3181C3.48068 3.04931 3.82687 2.90034 4.18555 2.90034H23.2988C23.6575 2.90034 24.0037 3.04931 24.2606 3.3181C24.5178 3.58723 24.6641 3.95437 24.6641 4.33922V17.6706C24.6641 18.0554 24.5178 18.4226 24.2606 18.6917C24.0037 18.9605 23.6575 19.1094 23.2988 19.1094H8.0305Z" fill="#EBF6F5" stroke="white" stroke-width="0.455078"/>
<path d="M12.4514 9.66909L12.6159 9.82631L12.4514 9.66909C12.1113 10.025 11.9219 10.5056 11.9219 11.0046C11.9219 11.5037 12.1113 11.9843 12.4514 12.3402C12.7919 12.6964 13.256 12.8986 13.7422 12.8986C14.2284 12.8986 14.6924 12.6964 15.0329 12.3402C15.3731 11.9843 15.5625 11.5037 15.5625 11.0046C15.5625 10.5056 15.3731 10.025 15.0329 9.66909C14.6924 9.31285 14.2284 9.11069 13.7422 9.11069C13.256 9.11069 12.7919 9.31285 12.4514 9.66909ZM8.66184 12.3402C9.00201 11.9843 9.19141 11.5037 9.19141 11.0046C9.19141 10.5056 9.00201 10.025 8.66184 9.66909C8.32134 9.31285 7.85727 9.11069 7.37109 9.11069C6.88491 9.11069 6.42084 9.31285 6.08034 9.66909C5.74018 10.025 5.55078 10.5056 5.55078 11.0046C5.55078 11.5037 5.74018 11.9843 6.08034 12.3402C6.42084 12.6964 6.88491 12.8986 7.37109 12.8986C7.85727 12.8986 8.32134 12.6964 8.66184 12.3402ZM21.404 12.3402C21.7442 11.9843 21.9336 11.5037 21.9336 11.0046C21.9336 10.5056 21.7442 10.025 21.404 9.66909C21.0635 9.31285 20.5995 9.11069 20.1133 9.11069C19.6271 9.11069 19.163 9.31285 18.8225 9.66909C18.4824 10.025 18.293 10.5056 18.293 11.0046C18.293 11.5037 18.4824 11.9843 18.8225 12.3402C19.163 12.6964 19.6271 12.8986 20.1133 12.8986C20.5995 12.8986 21.0635 12.6964 21.404 12.3402Z" fill="#EBF6F5" stroke="white" stroke-width="0.455078"/>
</svg>
