<svg width="13" height="11" viewBox="0 0 13 11" fill="none" xmlns="http://www.w3.org/2000/svg">
<path d="M4.01314 8.70242L1.32065 6.00994C1.17557 5.86485 0.978797 5.78335 0.77362 5.78335C0.568443 5.78335 0.37167 5.86485 0.226588 6.00994C0.0815062 6.15502 0 6.35179 0 6.55697C0 6.65856 0.0200104 6.75916 0.0588885 6.85302C0.0977666 6.94688 0.154751 7.03216 0.226588 7.104L3.46999 10.3474C3.7726 10.65 4.26144 10.65 4.56405 10.3474L12.7734 2.13804C12.9185 1.99295 13 1.79618 13 1.591C13 1.38583 12.9185 1.18905 12.7734 1.04397C12.6283 0.898889 12.4316 0.817383 12.2264 0.817383C12.0212 0.817383 11.8244 0.898889 11.6793 1.04397L4.01314 8.70242Z" fill="white"/>
</svg>
