<svg width="11" height="11" viewBox="0 0 11 11" fill="none" xmlns="http://www.w3.org/2000/svg">
<path d="M10.2161 9.22173C10.3482 9.35382 10.4224 9.53297 10.4224 9.71977C10.4224 9.90658 10.3482 10.0857 10.2161 10.2178C10.084 10.3499 9.90482 10.4241 9.71802 10.4241C9.53121 10.4241 9.35206 10.3499 9.21997 10.2178L5.49985 6.49653L1.77856 10.2167C1.64647 10.3487 1.46732 10.4229 1.28052 10.4229C1.09371 10.4229 0.91456 10.3487 0.78247 10.2167C0.650379 10.0846 0.576172 9.90541 0.576172 9.7186C0.576172 9.5318 0.650379 9.35265 0.78247 9.22056L4.50376 5.50044L0.783641 1.77915C0.651551 1.64706 0.577344 1.46791 0.577344 1.2811C0.577344 1.0943 0.651551 0.915146 0.783641 0.783056C0.915732 0.650965 1.09488 0.576758 1.28169 0.576758C1.46849 0.576758 1.64765 0.650965 1.77974 0.783056L5.49985 4.50434L9.22114 0.78247C9.35323 0.650379 9.53238 0.576172 9.71919 0.576172C9.90599 0.576172 10.0851 0.650379 10.2172 0.78247C10.3493 0.91456 10.4235 1.09371 10.4235 1.28052C10.4235 1.46732 10.3493 1.64647 10.2172 1.77856L6.49595 5.50044L10.2161 9.22173Z" fill="white"/>
</svg>
