<svg width="24" height="31" viewBox="0 0 24 31" fill="none" xmlns="http://www.w3.org/2000/svg">
<path fill-rule="evenodd" clip-rule="evenodd" d="M11.8815 21.1954C5.48998 21.1954 2.24998 22.2934 2.24998 24.4609C2.24998 26.6479 5.48998 27.7564 11.8815 27.7564C18.2715 27.7564 21.51 26.6584 21.51 24.4909C21.51 22.3039 18.2715 21.1954 11.8815 21.1954ZM11.8815 30.0064C8.943 30.0064 0 30.0064 0 24.4609C0 19.5169 6.7815 18.9454 11.8815 18.9454C14.82 18.9454 23.76 18.9454 23.76 24.4909C23.76 29.4349 16.98 30.0064 11.8815 30.0064Z" fill="#EBF6F5"/>
<path fill-rule="evenodd" clip-rule="evenodd" d="M11.8816 2.34278C8.6701 2.34278 6.0571 4.95428 6.0571 8.16578C6.0466 11.3668 8.6401 13.9768 11.8381 13.9888L11.8816 15.0598V13.9888C15.0916 13.9888 17.7031 11.3758 17.7031 8.16578C17.7031 4.95428 15.0916 2.34278 11.8816 2.34278ZM11.8816 16.1293H11.8336C7.45059 16.1158 3.90009 12.5413 3.91509 8.16127C3.91509 3.77378 7.48809 0.200775 11.8816 0.200775C16.2736 0.200775 19.8451 3.77377 19.8451 8.16577C19.8451 12.5578 16.2736 16.1293 11.8816 16.1293Z" fill="#EBF6F5"/>
</svg>
