<svg width="12" height="12" viewBox="0 0 12 12" fill="none" xmlns="http://www.w3.org/2000/svg">
<path d="M6 1C3.2385 0.999999 1 3.2385 1 6C1 8.7615 3.2385 11 6 11C8.7615 11 11 8.7615 11 6C11 3.2385 8.7615 1 6 1Z" stroke="#2B5B5B"/>
<path d="M6 1C3.2385 0.999999 1 3.2385 1 6C1 8.7615 3.2385 11 6 11C8.7615 11 11 8.7615 11 6C11 3.2385 8.7615 1 6 1Z" stroke="#2B5B5B" stroke-linejoin="round"/>
<path d="M3.75 5.25L6 7.5L8.25 5.25" stroke="#2B5B5B" stroke-linecap="round" stroke-linejoin="round"/>
</svg>
