<svg width="26" height="27" viewBox="0 0 26 27" fill="none" xmlns="http://www.w3.org/2000/svg">
<path d="M13 2.23683C14.4281 0.808694 16.3651 0.00637817 18.3848 0.00637817C20.4045 0.00637817 22.3414 0.808694 23.7696 2.23683C25.1977 3.66496 26 5.60192 26 7.6216C26 9.64128 25.1977 11.5782 23.7696 13.0064L13 23.7759C12.2929 24.4831 11.4534 25.044 10.5294 25.4267C9.60552 25.8094 8.61527 26.0064 7.61522 26.0064C5.59554 26.0064 3.65858 25.2041 2.23045 23.7759C0.802316 22.3478 0 20.4108 0 18.3912C0 16.3715 0.802316 14.4345 2.23045 13.0064L13 2.23683ZM17.6168 16.0828L22.2292 11.4682C23.242 10.4468 23.809 9.06573 23.806 7.6273C23.8031 6.18887 23.2304 4.81017 22.2135 3.79291C21.1965 2.77564 19.818 2.20263 18.3795 2.19928C16.9411 2.19593 15.5599 2.7625 14.5382 3.77502L9.92361 8.39396L17.6168 16.0849V16.0828ZM12.6824 19.2157C12.8866 19.0115 13.0014 18.7344 13.0014 18.4455C13.0014 18.1567 12.8866 17.8796 12.6824 17.6754C12.4781 17.4711 12.201 17.3563 11.9122 17.3563C11.6233 17.3563 11.3462 17.4711 11.142 17.6754L7.87848 20.9389C7.77734 21.04 7.69711 21.1601 7.64237 21.2922C7.58763 21.4244 7.55946 21.566 7.55946 21.709C7.55946 21.8521 7.58763 21.9937 7.64237 22.1259C7.69711 22.258 7.77734 22.3781 7.87848 22.4792C8.08274 22.6835 8.35979 22.7983 8.64867 22.7983C8.7917 22.7983 8.93334 22.7701 9.06549 22.7153C9.19764 22.6606 9.31771 22.5804 9.41885 22.4792L12.6824 19.2157Z" fill="#EBF6F5"/>
</svg>
