<svg width="13" height="13" viewBox="0 0 13 13" fill="none" xmlns="http://www.w3.org/2000/svg">
<path fill-rule="evenodd" clip-rule="evenodd" d="M12.9451 0.445612C12.909 0.358691 12.8563 0.279683 12.7898 0.213056L12.7869 0.210167C12.6518 0.0753964 12.4686 -0.000196803 12.2778 3.84813e-07H7.94444C7.7529 3.84813e-07 7.5692 0.0760914 7.43376 0.211534C7.29831 0.346977 7.22222 0.530677 7.22222 0.722223C7.22222 0.913768 7.29831 1.09747 7.43376 1.23291C7.5692 1.36835 7.7529 1.44444 7.94444 1.44444H10.5343L5.26717 6.71161C5.19819 6.77823 5.14317 6.85793 5.10532 6.94604C5.06746 7.03416 5.04754 7.12893 5.04671 7.22482C5.04587 7.32072 5.06415 7.41582 5.10046 7.50458C5.13678 7.59334 5.1904 7.67397 5.25821 7.74179C5.32603 7.8096 5.40666 7.86322 5.49542 7.89954C5.58418 7.93585 5.67928 7.95413 5.77518 7.95329C5.87107 7.95246 5.96584 7.93254 6.05396 7.89469C6.14207 7.85683 6.22177 7.80181 6.28839 7.73283L11.5556 2.46567V5.05556C11.5556 5.2471 11.6316 5.4308 11.7671 5.56624C11.9025 5.70169 12.0862 5.77778 12.2778 5.77778C12.4693 5.77778 12.653 5.70169 12.7885 5.56624C12.9239 5.4308 13 5.2471 13 5.05556V0.722223V0.720056C13 0.626167 12.9812 0.533723 12.9451 0.445612ZM0 3.61111C0 2.65339 0.380455 1.73488 1.05767 1.05767C1.73488 0.380456 2.65338 3.84813e-07 3.61111 3.84813e-07H4.33333C4.52488 3.84813e-07 4.70858 0.0760914 4.84402 0.211534C4.97946 0.346977 5.05556 0.530677 5.05556 0.722223C5.05556 0.913768 4.97946 1.09747 4.84402 1.23291C4.70858 1.36835 4.52488 1.44444 4.33333 1.44444H3.61111C3.03648 1.44444 2.48538 1.67272 2.07905 2.07905C1.67272 2.48538 1.44444 3.03648 1.44444 3.61111V9.38889C1.44444 9.96352 1.67272 10.5146 2.07905 10.921C2.48538 11.3273 3.03648 11.5556 3.61111 11.5556H9.38889C9.96352 11.5556 10.5146 11.3273 10.921 10.921C11.3273 10.5146 11.5556 9.96352 11.5556 9.38889V8.66667C11.5556 8.47512 11.6316 8.29142 11.7671 8.15598C11.9025 8.02054 12.0862 7.94445 12.2778 7.94445C12.4693 7.94445 12.653 8.02054 12.7885 8.15598C12.9239 8.29142 13 8.47512 13 8.66667V9.38889C13 10.3466 12.6195 11.2651 11.9423 11.9423C11.2651 12.6195 10.3466 13 9.38889 13H3.61111C2.65338 13 1.73488 12.6195 1.05767 11.9423C0.380455 11.2651 0 10.3466 0 9.38889V3.61111Z" fill="#2B5B5B"/>
</svg>
