<svg width="304" height="86" viewBox="0 0 304 86" fill="none" xmlns="http://www.w3.org/2000/svg">
<path d="M39.2188 33.8038C40.0938 32.92 40.0238 31.4675 38.9475 30.8462C36.9 29.6737 34.5288 29 32 29C24.265 29 18 35.265 18 43C18 45.5287 18.6738 47.9 19.8463 49.9475C20.4675 51.0325 21.9287 51.0938 22.8037 50.2188L39.2188 33.8038Z" fill="#075D5D"/>
<path d="M46 43C46 40.4713 45.3263 38.1 44.1538 36.0525C43.5325 34.9675 42.0713 34.9062 41.1963 35.7812L24.7812 52.1963C23.9062 53.08 23.9763 54.5325 25.0525 55.1537C27.1 56.3262 29.4713 57 32 57C39.735 57 46 50.735 46 43Z" fill="#075D5D"/>
<path d="M62.897 60V28.71H74.909C77.065 28.71 78.969 29.088 80.621 29.844C82.301 30.6 83.617 31.72 84.569 33.204C85.521 34.688 85.997 36.522 85.997 38.706C85.997 40.834 85.507 42.64 84.527 44.124C83.575 45.608 82.259 46.742 80.579 47.526C78.927 48.282 77.037 48.66 74.909 48.66H69.407V60H62.897ZM69.407 42.99H74.951C75.875 42.99 76.673 42.808 77.345 42.444C78.017 42.08 78.535 41.576 78.899 40.932C79.291 40.288 79.487 39.546 79.487 38.706C79.487 37.838 79.291 37.082 78.899 36.438C78.535 35.794 78.017 35.29 77.345 34.926C76.673 34.562 75.875 34.38 74.951 34.38H69.407V42.99ZM89.7104 60V37.068H95.5904V42.57L95.1704 41.772C95.6744 39.84 96.5004 38.538 97.6484 37.866C98.8244 37.166 100.21 36.816 101.806 36.816H103.15V42.276H101.176C99.6364 42.276 98.3904 42.752 97.4384 43.704C96.4864 44.628 96.0104 45.944 96.0104 47.652V60H89.7104ZM116.958 60.504C114.522 60.504 112.408 59.972 110.616 58.908C108.824 57.816 107.438 56.36 106.458 54.54C105.478 52.72 104.988 50.704 104.988 48.492C104.988 46.196 105.492 44.152 106.5 42.36C107.536 40.568 108.922 39.154 110.658 38.118C112.394 37.082 114.354 36.564 116.538 36.564C118.358 36.564 119.968 36.858 121.368 37.446C122.768 38.006 123.944 38.804 124.896 39.84C125.876 40.876 126.618 42.08 127.122 43.452C127.626 44.796 127.878 46.266 127.878 47.862C127.878 48.31 127.85 48.758 127.794 49.206C127.766 49.626 127.696 49.99 127.584 50.298H110.406V45.678H124.014L121.032 47.862C121.312 46.658 121.298 45.594 120.99 44.67C120.682 43.718 120.136 42.976 119.352 42.444C118.596 41.884 117.658 41.604 116.538 41.604C115.446 41.604 114.508 41.87 113.724 42.402C112.94 42.934 112.352 43.718 111.96 44.754C111.568 45.79 111.414 47.05 111.498 48.534C111.386 49.822 111.54 50.956 111.96 51.936C112.38 52.916 113.024 53.686 113.892 54.246C114.76 54.778 115.81 55.044 117.042 55.044C118.162 55.044 119.114 54.82 119.898 54.372C120.71 53.924 121.34 53.308 121.788 52.524L126.828 54.918C126.38 56.038 125.666 57.018 124.686 57.858C123.734 58.698 122.6 59.356 121.284 59.832C119.968 60.28 118.526 60.504 116.958 60.504ZM140.575 60.504C138.055 60.504 135.857 59.916 133.981 58.74C132.133 57.536 130.873 55.926 130.201 53.91L134.821 51.726C135.409 52.958 136.207 53.924 137.215 54.624C138.223 55.324 139.343 55.674 140.575 55.674C141.471 55.674 142.157 55.492 142.633 55.128C143.109 54.764 143.347 54.26 143.347 53.616C143.347 53.28 143.263 53 143.095 52.776C142.927 52.524 142.675 52.3 142.339 52.104C142.003 51.908 141.583 51.74 141.079 51.6L137.173 50.508C135.297 49.976 133.855 49.122 132.847 47.946C131.839 46.742 131.335 45.328 131.335 43.704C131.335 42.276 131.699 41.03 132.427 39.966C133.155 38.902 134.177 38.076 135.493 37.488C136.809 36.872 138.321 36.564 140.029 36.564C142.269 36.564 144.229 37.096 145.909 38.16C147.617 39.196 148.821 40.666 149.521 42.57L144.859 44.754C144.523 43.802 143.907 43.046 143.011 42.486C142.143 41.898 141.149 41.604 140.029 41.604C139.217 41.604 138.573 41.772 138.097 42.108C137.649 42.444 137.425 42.906 137.425 43.494C137.425 43.802 137.509 44.082 137.677 44.334C137.845 44.586 138.111 44.81 138.475 45.006C138.867 45.202 139.343 45.384 139.903 45.552L143.557 46.644C145.461 47.204 146.917 48.058 147.925 49.206C148.933 50.326 149.437 51.712 149.437 53.364C149.437 54.792 149.059 56.038 148.303 57.102C147.575 58.166 146.553 59.006 145.237 59.622C143.921 60.21 142.367 60.504 140.575 60.504ZM164.459 60.504C162.163 60.504 160.091 59.986 158.243 58.95C156.423 57.886 154.967 56.444 153.875 54.624C152.811 52.804 152.279 50.76 152.279 48.492C152.279 46.224 152.811 44.194 153.875 42.402C154.939 40.582 156.395 39.154 158.243 38.118C160.091 37.082 162.163 36.564 164.459 36.564C166.167 36.564 167.749 36.858 169.205 37.446C170.661 38.034 171.907 38.86 172.943 39.924C173.979 40.96 174.721 42.192 175.169 43.62L169.709 45.972C169.317 44.824 168.645 43.914 167.693 43.242C166.769 42.57 165.691 42.234 164.459 42.234C163.367 42.234 162.387 42.5 161.519 43.032C160.679 43.564 160.007 44.306 159.503 45.258C159.027 46.21 158.789 47.302 158.789 48.534C158.789 49.766 159.027 50.858 159.503 51.81C160.007 52.762 160.679 53.504 161.519 54.036C162.387 54.568 163.367 54.834 164.459 54.834C165.719 54.834 166.811 54.498 167.735 53.826C168.659 53.154 169.317 52.244 169.709 51.096L175.169 53.49C174.749 54.834 174.021 56.038 172.985 57.102C171.949 58.166 170.703 59.006 169.247 59.622C167.791 60.21 166.195 60.504 164.459 60.504ZM178.878 60V37.068H184.758V42.57L184.338 41.772C184.842 39.84 185.668 38.538 186.816 37.866C187.992 37.166 189.378 36.816 190.974 36.816H192.318V42.276H190.344C188.804 42.276 187.558 42.752 186.606 43.704C185.654 44.628 185.178 45.944 185.178 47.652V60H178.878ZM195.08 60V37.068H201.38V60H195.08ZM195.08 35.01V28.71H201.38V35.01H195.08ZM218.842 60.504C217.274 60.504 215.818 60.224 214.474 59.664C213.158 59.076 212.094 58.222 211.282 57.102L211.87 55.8V60H205.99V28.206H212.29V41.436L211.324 40.176C212.08 39.028 213.102 38.146 214.39 37.53C215.706 36.886 217.204 36.564 218.884 36.564C221.068 36.564 223.042 37.096 224.806 38.16C226.57 39.224 227.97 40.666 229.006 42.486C230.042 44.278 230.56 46.294 230.56 48.534C230.56 50.746 230.042 52.762 229.006 54.582C227.998 56.402 226.612 57.844 224.848 58.908C223.084 59.972 221.082 60.504 218.842 60.504ZM218.086 54.834C219.262 54.834 220.298 54.568 221.194 54.036C222.09 53.504 222.79 52.762 223.294 51.81C223.798 50.858 224.05 49.766 224.05 48.534C224.05 47.302 223.798 46.224 223.294 45.3C222.79 44.348 222.09 43.606 221.194 43.074C220.298 42.514 219.262 42.234 218.086 42.234C216.966 42.234 215.958 42.5 215.062 43.032C214.194 43.564 213.508 44.306 213.004 45.258C212.528 46.21 212.29 47.302 212.29 48.534C212.29 49.766 212.528 50.858 213.004 51.81C213.508 52.762 214.194 53.504 215.062 54.036C215.958 54.568 216.966 54.834 218.086 54.834ZM245.295 60.504C242.859 60.504 240.745 59.972 238.953 58.908C237.161 57.816 235.775 56.36 234.795 54.54C233.815 52.72 233.325 50.704 233.325 48.492C233.325 46.196 233.829 44.152 234.837 42.36C235.873 40.568 237.259 39.154 238.995 38.118C240.731 37.082 242.691 36.564 244.875 36.564C246.695 36.564 248.305 36.858 249.705 37.446C251.105 38.006 252.281 38.804 253.233 39.84C254.213 40.876 254.955 42.08 255.459 43.452C255.963 44.796 256.215 46.266 256.215 47.862C256.215 48.31 256.187 48.758 256.131 49.206C256.103 49.626 256.033 49.99 255.921 50.298H238.743V45.678H252.351L249.369 47.862C249.649 46.658 249.635 45.594 249.327 44.67C249.019 43.718 248.473 42.976 247.689 42.444C246.933 41.884 245.995 41.604 244.875 41.604C243.783 41.604 242.845 41.87 242.061 42.402C241.277 42.934 240.689 43.718 240.297 44.754C239.905 45.79 239.751 47.05 239.835 48.534C239.723 49.822 239.877 50.956 240.297 51.936C240.717 52.916 241.361 53.686 242.229 54.246C243.097 54.778 244.147 55.044 245.379 55.044C246.499 55.044 247.451 54.82 248.235 54.372C249.047 53.924 249.677 53.308 250.125 52.524L255.165 54.918C254.717 56.038 254.003 57.018 253.023 57.858C252.071 58.698 250.937 59.356 249.621 59.832C248.305 60.28 246.863 60.504 245.295 60.504ZM270.719 60.504C268.479 60.504 266.477 59.972 264.713 58.908C262.949 57.844 261.549 56.402 260.513 54.582C259.505 52.762 259.001 50.746 259.001 48.534C259.001 46.294 259.519 44.278 260.555 42.486C261.591 40.666 262.991 39.224 264.755 38.16C266.519 37.096 268.493 36.564 270.677 36.564C272.357 36.564 273.841 36.886 275.129 37.53C276.445 38.146 277.481 39.028 278.237 40.176L277.271 41.436V28.206H283.571V60H277.691V55.8L278.279 57.102C277.495 58.222 276.431 59.076 275.087 59.664C273.743 60.224 272.287 60.504 270.719 60.504ZM271.475 54.834C272.623 54.834 273.631 54.568 274.499 54.036C275.367 53.504 276.039 52.762 276.515 51.81C277.019 50.858 277.271 49.766 277.271 48.534C277.271 47.302 277.019 46.21 276.515 45.258C276.039 44.306 275.367 43.564 274.499 43.032C273.631 42.5 272.623 42.234 271.475 42.234C270.327 42.234 269.291 42.514 268.367 43.074C267.471 43.606 266.771 44.348 266.267 45.3C265.763 46.224 265.511 47.302 265.511 48.534C265.511 49.766 265.763 50.858 266.267 51.81C266.771 52.762 267.471 53.504 268.367 54.036C269.291 54.568 270.327 54.834 271.475 54.834Z" fill="#075D5D"/>
</svg>
