<svg width="305" height="86" viewBox="0 0 305 86" fill="none" xmlns="http://www.w3.org/2000/svg">
<path d="M39.7188 33.8038C40.5938 32.92 40.5238 31.4675 39.4475 30.8462C37.4 29.6737 35.0288 29 32.5 29C24.765 29 18.5 35.265 18.5 43C18.5 45.5287 19.1738 47.9 20.3463 49.9475C20.9675 51.0325 22.4287 51.0938 23.3037 50.2188L39.7188 33.8038Z" fill="#EBF6F5"/>
<path d="M46.5 43C46.5 40.4713 45.8263 38.1 44.6538 36.0525C44.0325 34.9675 42.5713 34.9062 41.6963 35.7812L25.2812 52.1963C24.4062 53.08 24.4763 54.5325 25.5525 55.1537C27.6 56.3262 29.9713 57 32.5 57C40.235 57 46.5 50.735 46.5 43Z" fill="#EBF6F5"/>
<path d="M63.397 60V28.71H75.409C77.565 28.71 79.469 29.088 81.121 29.844C82.801 30.6 84.117 31.72 85.069 33.204C86.021 34.688 86.497 36.522 86.497 38.706C86.497 40.834 86.007 42.64 85.027 44.124C84.075 45.608 82.759 46.742 81.079 47.526C79.427 48.282 77.537 48.66 75.409 48.66H69.907V60H63.397ZM69.907 42.99H75.451C76.375 42.99 77.173 42.808 77.845 42.444C78.517 42.08 79.035 41.576 79.399 40.932C79.791 40.288 79.987 39.546 79.987 38.706C79.987 37.838 79.791 37.082 79.399 36.438C79.035 35.794 78.517 35.29 77.845 34.926C77.173 34.562 76.375 34.38 75.451 34.38H69.907V42.99ZM90.2104 60V37.068H96.0904V42.57L95.6704 41.772C96.1744 39.84 97.0004 38.538 98.1484 37.866C99.3244 37.166 100.71 36.816 102.306 36.816H103.65V42.276H101.676C100.136 42.276 98.8904 42.752 97.9384 43.704C96.9864 44.628 96.5104 45.944 96.5104 47.652V60H90.2104ZM117.458 60.504C115.022 60.504 112.908 59.972 111.116 58.908C109.324 57.816 107.938 56.36 106.958 54.54C105.978 52.72 105.488 50.704 105.488 48.492C105.488 46.196 105.992 44.152 107 42.36C108.036 40.568 109.422 39.154 111.158 38.118C112.894 37.082 114.854 36.564 117.038 36.564C118.858 36.564 120.468 36.858 121.868 37.446C123.268 38.006 124.444 38.804 125.396 39.84C126.376 40.876 127.118 42.08 127.622 43.452C128.126 44.796 128.378 46.266 128.378 47.862C128.378 48.31 128.35 48.758 128.294 49.206C128.266 49.626 128.196 49.99 128.084 50.298H110.906V45.678H124.514L121.532 47.862C121.812 46.658 121.798 45.594 121.49 44.67C121.182 43.718 120.636 42.976 119.852 42.444C119.096 41.884 118.158 41.604 117.038 41.604C115.946 41.604 115.008 41.87 114.224 42.402C113.44 42.934 112.852 43.718 112.46 44.754C112.068 45.79 111.914 47.05 111.998 48.534C111.886 49.822 112.04 50.956 112.46 51.936C112.88 52.916 113.524 53.686 114.392 54.246C115.26 54.778 116.31 55.044 117.542 55.044C118.662 55.044 119.614 54.82 120.398 54.372C121.21 53.924 121.84 53.308 122.288 52.524L127.328 54.918C126.88 56.038 126.166 57.018 125.186 57.858C124.234 58.698 123.1 59.356 121.784 59.832C120.468 60.28 119.026 60.504 117.458 60.504ZM141.075 60.504C138.555 60.504 136.357 59.916 134.481 58.74C132.633 57.536 131.373 55.926 130.701 53.91L135.321 51.726C135.909 52.958 136.707 53.924 137.715 54.624C138.723 55.324 139.843 55.674 141.075 55.674C141.971 55.674 142.657 55.492 143.133 55.128C143.609 54.764 143.847 54.26 143.847 53.616C143.847 53.28 143.763 53 143.595 52.776C143.427 52.524 143.175 52.3 142.839 52.104C142.503 51.908 142.083 51.74 141.579 51.6L137.673 50.508C135.797 49.976 134.355 49.122 133.347 47.946C132.339 46.742 131.835 45.328 131.835 43.704C131.835 42.276 132.199 41.03 132.927 39.966C133.655 38.902 134.677 38.076 135.993 37.488C137.309 36.872 138.821 36.564 140.529 36.564C142.769 36.564 144.729 37.096 146.409 38.16C148.117 39.196 149.321 40.666 150.021 42.57L145.359 44.754C145.023 43.802 144.407 43.046 143.511 42.486C142.643 41.898 141.649 41.604 140.529 41.604C139.717 41.604 139.073 41.772 138.597 42.108C138.149 42.444 137.925 42.906 137.925 43.494C137.925 43.802 138.009 44.082 138.177 44.334C138.345 44.586 138.611 44.81 138.975 45.006C139.367 45.202 139.843 45.384 140.403 45.552L144.057 46.644C145.961 47.204 147.417 48.058 148.425 49.206C149.433 50.326 149.937 51.712 149.937 53.364C149.937 54.792 149.559 56.038 148.803 57.102C148.075 58.166 147.053 59.006 145.737 59.622C144.421 60.21 142.867 60.504 141.075 60.504ZM164.959 60.504C162.663 60.504 160.591 59.986 158.743 58.95C156.923 57.886 155.467 56.444 154.375 54.624C153.311 52.804 152.779 50.76 152.779 48.492C152.779 46.224 153.311 44.194 154.375 42.402C155.439 40.582 156.895 39.154 158.743 38.118C160.591 37.082 162.663 36.564 164.959 36.564C166.667 36.564 168.249 36.858 169.705 37.446C171.161 38.034 172.407 38.86 173.443 39.924C174.479 40.96 175.221 42.192 175.669 43.62L170.209 45.972C169.817 44.824 169.145 43.914 168.193 43.242C167.269 42.57 166.191 42.234 164.959 42.234C163.867 42.234 162.887 42.5 162.019 43.032C161.179 43.564 160.507 44.306 160.003 45.258C159.527 46.21 159.289 47.302 159.289 48.534C159.289 49.766 159.527 50.858 160.003 51.81C160.507 52.762 161.179 53.504 162.019 54.036C162.887 54.568 163.867 54.834 164.959 54.834C166.219 54.834 167.311 54.498 168.235 53.826C169.159 53.154 169.817 52.244 170.209 51.096L175.669 53.49C175.249 54.834 174.521 56.038 173.485 57.102C172.449 58.166 171.203 59.006 169.747 59.622C168.291 60.21 166.695 60.504 164.959 60.504ZM179.378 60V37.068H185.258V42.57L184.838 41.772C185.342 39.84 186.168 38.538 187.316 37.866C188.492 37.166 189.878 36.816 191.474 36.816H192.818V42.276H190.844C189.304 42.276 188.058 42.752 187.106 43.704C186.154 44.628 185.678 45.944 185.678 47.652V60H179.378ZM195.58 60V37.068H201.88V60H195.58ZM195.58 35.01V28.71H201.88V35.01H195.58ZM219.342 60.504C217.774 60.504 216.318 60.224 214.974 59.664C213.658 59.076 212.594 58.222 211.782 57.102L212.37 55.8V60H206.49V28.206H212.79V41.436L211.824 40.176C212.58 39.028 213.602 38.146 214.89 37.53C216.206 36.886 217.704 36.564 219.384 36.564C221.568 36.564 223.542 37.096 225.306 38.16C227.07 39.224 228.47 40.666 229.506 42.486C230.542 44.278 231.06 46.294 231.06 48.534C231.06 50.746 230.542 52.762 229.506 54.582C228.498 56.402 227.112 57.844 225.348 58.908C223.584 59.972 221.582 60.504 219.342 60.504ZM218.586 54.834C219.762 54.834 220.798 54.568 221.694 54.036C222.59 53.504 223.29 52.762 223.794 51.81C224.298 50.858 224.55 49.766 224.55 48.534C224.55 47.302 224.298 46.224 223.794 45.3C223.29 44.348 222.59 43.606 221.694 43.074C220.798 42.514 219.762 42.234 218.586 42.234C217.466 42.234 216.458 42.5 215.562 43.032C214.694 43.564 214.008 44.306 213.504 45.258C213.028 46.21 212.79 47.302 212.79 48.534C212.79 49.766 213.028 50.858 213.504 51.81C214.008 52.762 214.694 53.504 215.562 54.036C216.458 54.568 217.466 54.834 218.586 54.834ZM245.795 60.504C243.359 60.504 241.245 59.972 239.453 58.908C237.661 57.816 236.275 56.36 235.295 54.54C234.315 52.72 233.825 50.704 233.825 48.492C233.825 46.196 234.329 44.152 235.337 42.36C236.373 40.568 237.759 39.154 239.495 38.118C241.231 37.082 243.191 36.564 245.375 36.564C247.195 36.564 248.805 36.858 250.205 37.446C251.605 38.006 252.781 38.804 253.733 39.84C254.713 40.876 255.455 42.08 255.959 43.452C256.463 44.796 256.715 46.266 256.715 47.862C256.715 48.31 256.687 48.758 256.631 49.206C256.603 49.626 256.533 49.99 256.421 50.298H239.243V45.678H252.851L249.869 47.862C250.149 46.658 250.135 45.594 249.827 44.67C249.519 43.718 248.973 42.976 248.189 42.444C247.433 41.884 246.495 41.604 245.375 41.604C244.283 41.604 243.345 41.87 242.561 42.402C241.777 42.934 241.189 43.718 240.797 44.754C240.405 45.79 240.251 47.05 240.335 48.534C240.223 49.822 240.377 50.956 240.797 51.936C241.217 52.916 241.861 53.686 242.729 54.246C243.597 54.778 244.647 55.044 245.879 55.044C246.999 55.044 247.951 54.82 248.735 54.372C249.547 53.924 250.177 53.308 250.625 52.524L255.665 54.918C255.217 56.038 254.503 57.018 253.523 57.858C252.571 58.698 251.437 59.356 250.121 59.832C248.805 60.28 247.363 60.504 245.795 60.504ZM271.219 60.504C268.979 60.504 266.977 59.972 265.213 58.908C263.449 57.844 262.049 56.402 261.013 54.582C260.005 52.762 259.501 50.746 259.501 48.534C259.501 46.294 260.019 44.278 261.055 42.486C262.091 40.666 263.491 39.224 265.255 38.16C267.019 37.096 268.993 36.564 271.177 36.564C272.857 36.564 274.341 36.886 275.629 37.53C276.945 38.146 277.981 39.028 278.737 40.176L277.771 41.436V28.206H284.071V60H278.191V55.8L278.779 57.102C277.995 58.222 276.931 59.076 275.587 59.664C274.243 60.224 272.787 60.504 271.219 60.504ZM271.975 54.834C273.123 54.834 274.131 54.568 274.999 54.036C275.867 53.504 276.539 52.762 277.015 51.81C277.519 50.858 277.771 49.766 277.771 48.534C277.771 47.302 277.519 46.21 277.015 45.258C276.539 44.306 275.867 43.564 274.999 43.032C274.131 42.5 273.123 42.234 271.975 42.234C270.827 42.234 269.791 42.514 268.867 43.074C267.971 43.606 267.271 44.348 266.767 45.3C266.263 46.224 266.011 47.302 266.011 48.534C266.011 49.766 266.263 50.858 266.767 51.81C267.271 52.762 267.971 53.504 268.867 54.036C269.791 54.568 270.827 54.834 271.975 54.834Z" fill="#EBF6F5"/>
</svg>
