<svg width="28" height="29" viewBox="0 0 28 29" fill="none" xmlns="http://www.w3.org/2000/svg">
<path d="M13.9167 1C6.78279 1 1 6.86504 1 14.1004C1 21.3357 6.78279 27.2008 13.9167 27.2008C21.0505 27.2008 26.8333 21.3357 26.8333 14.1004C26.8333 6.86504 21.0505 1 13.9167 1Z" stroke="#EBF6F5" stroke-width="1.9375" stroke-linecap="round" stroke-linejoin="round"/>
<path d="M3.93408 22.4139C3.93408 22.4139 6.81321 18.6855 13.9174 18.6855C21.0215 18.6855 23.902 22.4139 23.902 22.4139M13.9174 14.1004C14.9451 14.1004 15.9307 13.6863 16.6574 12.9493C17.3841 12.2122 17.7924 11.2126 17.7924 10.1703C17.7924 9.12794 17.3841 8.1283 16.6574 7.39126C15.9307 6.65422 14.9451 6.24016 13.9174 6.24016C12.8897 6.24016 11.904 6.65422 11.1773 7.39126C10.4506 8.1283 10.0424 9.12794 10.0424 10.1703C10.0424 11.2126 10.4506 12.2122 11.1773 12.9493C11.904 13.6863 12.8897 14.1004 13.9174 14.1004Z" stroke="#EBF6F5" stroke-width="1.9375" stroke-linecap="round" stroke-linejoin="round"/>
</svg>
