<svg width="40" height="40" viewBox="0 0 40 40" fill="none" xmlns="http://www.w3.org/2000/svg">
<path fill-rule="evenodd" clip-rule="evenodd" d="M17.5 5C16.3568 5 15.3899 5.76832 15.0935 6.81916C15.0328 7.03417 15 7.26222 15 7.5H25C25 7.26222 24.9672 7.03417 24.9065 6.81916C24.6101 5.76832 23.6432 5 22.5 5H17.5ZM13.0109 5.29648C13.8252 3.6406 15.5282 2.5 17.5 2.5H22.5C24.4718 2.5 26.1748 3.6406 26.9891 5.29648C27.8184 5.36715 28.6442 5.45028 29.4663 5.54568C31.9619 5.83531 33.75 7.9787 33.75 10.4283V32.5C33.75 35.2614 31.5114 37.5 28.75 37.5H11.25C8.48858 37.5 6.25 35.2614 6.25 32.5V10.4283C6.25 7.9787 8.03805 5.83531 10.5337 5.54568C11.3558 5.45028 12.1816 5.36715 13.0109 5.29648Z" fill="#EBF6F5"/>
</svg>
