<svg width="20" height="20" viewBox="0 0 20 20" fill="none" xmlns="http://www.w3.org/2000/svg">
<path d="M12 5.5C11.7348 5.5 11.4804 5.60536 11.2929 5.79289C11.1054 5.98043 11 6.23478 11 6.5C11 6.76522 11.1054 7.01957 11.2929 7.20711C11.4804 7.39464 11.7348 7.5 12 7.5C12.2652 7.5 12.5196 7.39464 12.7071 7.20711C12.8946 7.01957 13 6.76522 13 6.5C13 6.23478 12.8946 5.98043 12.7071 5.79289C12.5196 5.60536 12.2652 5.5 12 5.5ZM7 6.5C7 6.23478 7.10536 5.98043 7.29289 5.79289C7.48043 5.60536 7.73478 5.5 8 5.5C8.26522 5.5 8.51957 5.60536 8.70711 5.79289C8.89464 5.98043 9 6.23478 9 6.5C9 6.76522 8.89464 7.01957 8.70711 7.20711C8.51957 7.39464 8.26522 7.5 8 7.5C7.73478 7.5 7.48043 7.39464 7.29289 7.20711C7.10536 7.01957 7 6.76522 7 6.5ZM10.5 2.5C10.5 2.36739 10.4473 2.24021 10.3536 2.14645C10.2598 2.05268 10.1326 2 10 2C9.86739 2 9.74021 2.05268 9.64645 2.14645C9.55268 2.24021 9.5 2.36739 9.5 2.5V3H6.5C6.10218 3 5.72064 3.15804 5.43934 3.43934C5.15804 3.72064 5 4.10218 5 4.5V8.5C5 8.89782 5.15804 9.27936 5.43934 9.56066C5.72064 9.84196 6.10218 10 6.5 10H13.5C13.8978 10 14.2794 9.84196 14.5607 9.56066C14.842 9.27936 15 8.89782 15 8.5V4.5C15 4.10218 14.842 3.72064 14.5607 3.43934C14.2794 3.15804 13.8978 3 13.5 3H10.5V2.5ZM6.5 4H13.5C13.6326 4 13.7598 4.05268 13.8536 4.14645C13.9473 4.24021 14 4.36739 14 4.5V8.5C14 8.63261 13.9473 8.75979 13.8536 8.85355C13.7598 8.94732 13.6326 9 13.5 9H6.5C6.36739 9 6.24021 8.94732 6.14645 8.85355C6.05268 8.75979 6 8.63261 6 8.5V4.5C6 4.36739 6.05268 4.24021 6.14645 4.14645C6.24021 4.05268 6.36739 4 6.5 4ZM10.25 17.998C12.866 17.965 14.445 17.403 15.372 16.558C16.247 15.758 16.461 14.781 16.495 14.002H16.5V13.312C16.4997 12.8321 16.3089 12.372 15.9695 12.0328C15.6301 11.6936 15.1699 11.503 14.69 11.503H11.5V11.5H8.5V11.503H5.31C4.31 11.503 3.5 12.313 3.5 13.313V14.002H3.505C3.539 14.782 3.753 15.759 4.628 16.557C5.555 17.403 7.134 17.965 9.75 17.998V18H10.25V17.998ZM5.31 12.503H14.69C14.9048 12.503 15.1109 12.5883 15.2628 12.7402C15.4147 12.8921 15.5 13.0982 15.5 13.313V13.75C15.5 14.44 15.369 15.206 14.698 15.819C14.01 16.446 12.66 17 10 17C7.34 17 5.99 16.446 5.302 15.819C4.632 15.206 4.5 14.439 4.5 13.75V13.312C4.50027 13.0973 4.58572 12.8916 4.7376 12.7399C4.88947 12.5882 5.09535 12.503 5.31 12.503Z" fill="white"/>
</svg>
