<svg width="11" height="11" viewBox="0 0 11 11" fill="none" xmlns="http://www.w3.org/2000/svg">
<path d="M10.0684 7.21644C9.70017 7.21644 9.40169 7.51491 9.40169 7.8831V8.33686C9.40169 8.95565 8.90006 9.45728 8.28127 9.45728H2.52212C1.90332 9.45728 1.40169 8.95565 1.40169 8.33686V7.8831C1.40169 7.51491 1.10322 7.21644 0.735026 7.21644C0.366836 7.21644 0.0683594 7.51491 0.0683594 7.8831V9.45728C0.0683594 10.2789 0.668359 10.9512 1.40169 10.9512H9.40169C10.135 10.9512 10.735 10.2789 10.735 9.45728V7.8831C10.735 7.51491 10.4365 7.21644 10.0684 7.21644ZM2.4856 2.26726C2.24789 2.53359 2.25085 2.93921 2.48856 3.20554C2.76381 3.51395 3.24976 3.51851 3.52561 3.21064C3.95004 2.73693 4.73503 3.03716 4.73503 3.67319V7.29672C4.73503 7.66491 5.0335 7.96338 5.40169 7.96338C5.76988 7.96338 6.06836 7.66491 6.06836 7.29672V3.67319C6.06836 3.03716 6.85335 2.73693 7.27777 3.21064C7.55362 3.51851 8.03957 3.51395 8.31483 3.20554C8.55253 2.93921 8.55549 2.53359 8.31779 2.26726L7.25706 1.07879C6.26824 -0.0291063 4.53515 -0.0291071 3.54633 1.07879L2.4856 2.26726Z" fill="white"/>
</svg>
