<svg width="12" height="12" viewBox="0 0 12 12" fill="none" xmlns="http://www.w3.org/2000/svg">
<g id="Group">
<path id="Vector" d="M6 11C8.7615 11 11 8.7615 11 6C11 3.2385 8.7615 1 6 1C3.2385 1 1 3.2385 1 6C1 8.7615 3.2385 11 6 11Z" stroke="#2B5B5B"/>
<path id="Vector_2" d="M6 11C8.7615 11 11 8.7615 11 6C11 3.2385 8.7615 1 6 1C3.2385 1 1 3.2385 1 6C1 8.7615 3.2385 11 6 11Z" stroke="#2B5B5B" stroke-linejoin="round"/>
<path id="Vector_3" d="M8.25 6.75L6 4.5L3.75 6.75" stroke="#2B5B5B" stroke-linecap="round" stroke-linejoin="round"/>
</g>
</svg>
